<svg width="42" height="55" viewBox='0 0 42 55' fill="white" xmlns="http://www.w3.org/2000/svg">
  <g filter="url(#filter0_d_5540_30578)">
    <path
      d="M27.9688 47C27.9688 49.2091 24.8347 51 20.9688 51C17.1028 51 13.9688 49.2091 13.9688 47C13.9688 44.7909 17.1028 43 20.9688 43C24.8347 43 27.9688 44.7909 27.9688 47Z"
      fill="#B7BECD"
    />
    <path
      fill-rule="evenodd"
      clip-rule="evenodd"
      d="M25.4224 48.9602C26.5406 48.3212 26.9688 47.5908 26.9688 47C26.9688 46.4092 26.5406 45.6788 25.4224 45.0398C24.3324 44.417 22.76 44 20.9688 44C19.1775 44 17.6051 44.417 16.5151 45.0398C15.3969 45.6788 14.9688 46.4092 14.9688 47C14.9688 47.5908 15.3969 48.3212 16.5151 48.9602C17.6051 49.583 19.1775 50 20.9688 50C22.76 50 24.3324 49.583 25.4224 48.9602ZM20.9688 51C24.8347 51 27.9688 49.2091 27.9688 47C27.9688 44.7909 24.8347 43 20.9688 43C17.1028 43 13.9688 44.7909 13.9688 47C13.9688 49.2091 17.1028 51 20.9688 51Z"
      fill="#9DA5B4"
    />
    <path
      d="M36.1572 29.7128C37.9565 26.9108 39 23.5772 39 20C39 10.0589 30.9411 2 21 2C11.0589 2 3 10.0589 3 20C3 23.5199 4.01031 26.8037 5.75675 29.5775C5.8519 29.7608 5.93449 29.9042 6.00029 30C6.03797 30.0549 6.12527 30.1666 6.25585 30.3279C6.84618 31.1691 7.50667 31.9575 8.22882 32.6845C12.1805 37.348 19.954 46.3654 19.954 46.3654C20.4203 47.2115 21.5861 47.2115 22.0524 46.3654C22.0524 46.3654 30.3784 36.8063 34.1928 32.2455C34.6936 31.7063 35.1617 31.1363 35.594 30.5386C35.7877 30.2939 35.9265 30.1106 36.0002 30C36.0508 29.924 36.1033 29.8275 36.1572 29.7128Z"
      fill="#4674FF"
    />
    <path
      fill-rule="evenodd"
      clip-rule="evenodd"
      d="M35.2802 29.2279L35.3158 29.1724C37.0146 26.5268 38 23.38 38 20C38 10.6112 30.3888 3 21 3C11.6112 3 4 10.6112 4 20C4 23.3258 4.95405 26.4258 6.60298 29.0447L6.62516 29.0799L6.64434 29.1169C6.73288 29.2875 6.79336 29.3884 6.82449 29.4337C6.82449 29.4337 6.82825 29.439 6.83794 29.452C6.84853 29.4661 6.86296 29.4849 6.88177 29.5091C6.91948 29.5574 6.9698 29.6205 7.03306 29.6986L7.05467 29.7253L7.0744 29.7535C7.63203 30.5481 8.25601 31.2929 8.93831 31.9798L8.96618 32.0079L8.99175 32.038C10.9652 34.3669 13.8945 37.7848 16.3319 40.6222C17.5502 42.0405 18.6452 43.3131 19.4355 44.2311C19.8307 44.6902 20.1497 45.0605 20.3699 45.3161L20.7111 45.712C20.7111 45.712 20.7114 45.7125 19.954 46.3654C19.954 46.3654 12.1805 37.348 8.22882 32.6845C7.50667 31.9575 6.84618 31.1691 6.25585 30.3279C6.12527 30.1666 6.03797 30.0549 6.00029 30C5.93449 29.9042 5.8519 29.7608 5.75675 29.5775C4.01031 26.8037 3 23.5199 3 20C3 10.0589 11.0589 2 21 2C30.9411 2 39 10.0589 39 20C39 23.5772 37.9565 26.9108 36.1572 29.7128C36.1033 29.8275 36.0508 29.924 36.0002 30C35.9265 30.1106 35.7877 30.2939 35.594 30.5386C35.1617 31.1363 34.6936 31.7063 34.1928 32.2455C30.3784 36.8063 22.0524 46.3654 22.0524 46.3654C21.2983 45.7086 21.2984 45.7085 21.2984 45.7085L21.6631 45.2894C21.898 45.0193 22.238 44.6283 22.6579 44.1448C23.4977 43.1778 24.6571 41.841 25.9356 40.3618C28.4943 37.4016 31.5244 33.8773 33.4257 31.604L33.4424 31.5841L33.46 31.5651C33.9331 31.0556 34.3754 30.5171 34.7837 29.9525L34.7965 29.9349L34.81 29.9179C35.0046 29.6721 35.1197 29.518 35.1681 29.4454C35.182 29.4246 35.2108 29.3756 35.2521 29.2876L35.2802 29.2279ZM22.0524 46.3654L21.2984 45.7085L21.2281 45.7892L21.1766 45.8827C21.1469 45.9366 21.1152 45.9626 21.0912 45.9766C21.0648 45.9919 21.0346 46 21.0032 46C20.9718 46 20.9416 45.9919 20.9152 45.9766C20.8912 45.9626 20.8595 45.9366 20.8298 45.8827L20.7795 45.7914L20.7111 45.712L19.954 46.3654C20.4203 47.2115 21.5861 47.2115 22.0524 46.3654Z"
      fill="#1F5AFF"
    />
    <path
      d="M26 19C26 21.7614 23.7614 24 21 24C18.2386 24 16 21.7614 16 19C16 16.2386 18.2386 14 21 14C23.7614 14 26 16.2386 26 19Z"
      fill="white"
    />
  </g>
  <defs>
    <filter
      id="filter0_d_5540_30578"
      x="0"
      y="0"
      width="42"
      height="55"
      filterUnits="userSpaceOnUse"
      color-interpolation-filters="sRGB"
    >
      <feFlood flood-opacity="0" result="BackgroundImageFix" />
      <feColorMatrix
        in="SourceAlpha"
        type="matrix"
        values="0 0 0 0 0 0 0 0 0 0 0 0 0 0 0 0 0 0 127 0"
        result="hardAlpha"
      />
      <feOffset dy="1" />
      <feGaussianBlur stdDeviation="1.5" />
      <!-- <feComposite in2="hardAlpha" operator="out" /> -->
      <feColorMatrix
        type="matrix"
        values="0 0 0 0 0.121569 0 0 0 0 0.352941 0 0 0 0 1 0 0 0 0.65 0"
      />
      <feBlend
        mode="normal"
        in2="BackgroundImageFix"
        result="effect1_dropShadow_5540_30578"
      />
      <feBlend
        mode="normal"
        in="SourceGraphic"
        in2="effect1_dropShadow_5540_30578"
        result="shape"
      />
    </filter>
  </defs>
</svg>