<svg width="61" height="60" viewBox="0 0 61 60" fill="none" xmlns="http://www.w3.org/2000/svg">
  <circle cx="30.5" cy="30" r="29.5" fill="white" stroke="#D7DEEA" />
  <path
    d="M43.251 30.272C43.251 29.2648 43.1676 28.5298 42.9871 27.7676H31.251V32.3136H38.1398C38.001 33.4434 37.251 35.1448 35.5843 36.2881L35.5609 36.4403L39.2716 39.2574L39.5287 39.2826C41.8898 37.1456 43.251 34.0014 43.251 30.272Z"
    fill="#4285F4" />
  <path
    d="M31.2505 42.2492C34.6255 42.2492 37.4587 41.1602 39.5283 39.2819L35.5838 36.2874C34.5283 37.0088 33.1116 37.5124 31.2505 37.5124C27.945 37.5124 25.1395 35.3755 24.1394 32.4219L23.9928 32.4341L20.1343 35.3605L20.0839 35.498C22.1394 39.4996 26.3616 42.2492 31.2505 42.2492Z"
    fill="#34A853" />
  <path
    d="M24.1397 32.4227C23.8758 31.6605 23.7231 30.8438 23.7231 29.9999C23.7231 29.156 23.8758 28.3394 24.1258 27.5771L24.1188 27.4148L20.212 24.4414L20.0842 24.501C19.237 26.1616 18.7509 28.0263 18.7509 29.9999C18.7509 31.9735 19.237 33.8382 20.0842 35.4988L24.1397 32.4227Z"
    fill="#FBBC05" />
  <path
    d="M31.2506 22.4866C33.5978 22.4866 35.1811 23.4802 36.0839 24.3106L39.6117 20.935C37.4451 18.9614 34.6255 17.75 31.2506 17.75C26.3616 17.75 22.1394 20.4994 20.0839 24.5011L24.1255 27.5772C25.1395 24.6236 27.945 22.4866 31.2506 22.4866Z"
    fill="#EB4335" />
</svg>